<svg width="1102" height="196" viewBox="0 0 1102 196" fill="none" xmlns="http://www.w3.org/2000/svg">
<g clip-path="url(#clip0_2054_230)">
<path d="M75.8421 164.963C33.0413 164.963 3.98393 136.691 3.98393 94.2831C3.98393 51.875 33.0413 23.603 75.8421 23.603C110.986 23.603 136.706 43.2363 142.399 76.4168L107.059 82.8958C103.329 67.1891 91.9415 58.943 75.8421 58.943C55.0307 58.943 42.269 72.6864 42.269 94.2831C42.269 115.88 55.0307 129.623 75.8421 129.623C93.5122 129.623 105.292 119.807 108.041 101.744L143.577 107.045C139.454 143.17 112.949 164.963 75.8421 164.963ZM153.8 163V68.7597H177.753L180.502 79.5581C187.177 71.3121 194.245 67.7781 203.277 67.7781C206.418 67.7781 209.559 68.1707 212.701 68.7597V96.6391H202.099C190.319 96.6391 185.214 102.333 185.214 115.487V163H153.8ZM262.968 164.963C233.911 164.963 215.063 145.723 215.063 115.88C215.063 86.0371 234.5 66.7964 263.165 66.7964C289.473 66.7964 313.033 83.4848 309.107 122.948H246.28C248.44 131.587 254.526 136.495 263.95 136.495C271.214 136.495 277.301 133.354 280.638 127.856L307.732 135.906C301.45 153.772 285.154 164.963 262.968 164.963ZM246.476 105.278H279.264C277.497 97.4245 271.803 92.9088 263.361 92.9088C254.722 92.9088 248.832 97.4245 246.476 105.278ZM361.646 164.374C335.534 164.374 316.489 145.134 316.489 115.88C316.489 86.6261 335.534 67.3854 361.646 67.3854C373.622 67.3854 382.065 71.3121 387.955 76.0241L389.918 68.7597H414.067V163H389.918L387.955 155.736C382.065 160.448 373.622 164.374 361.646 164.374ZM348.492 115.88C348.492 127.66 355.363 135.513 366.554 135.513C377.745 135.513 385.01 127.66 385.01 115.88C385.01 104.1 377.745 96.2465 366.554 96.2465C355.363 96.2465 348.492 104.1 348.492 115.88ZM467.043 164.963C444.269 164.963 434.452 152.005 434.452 131.194V96.6391H423.457V68.7597H426.991C435.63 68.7597 438.771 65.6184 438.771 56.3907V41.273H465.865V68.7597H486.284V96.6391H465.865V125.5C465.865 133.55 469.792 136.495 476.86 136.495C479.413 136.495 482.75 136.102 486.873 135.317V161.822C480.394 163.785 473.915 164.963 467.043 164.963ZM541.213 164.963C510.978 164.963 491.541 145.723 491.541 115.88C491.541 86.0371 510.978 66.7964 541.213 66.7964C571.449 66.7964 590.886 86.0371 590.886 115.88C590.886 145.723 571.449 164.963 541.213 164.963ZM523.739 115.88C523.739 127.267 530.415 134.924 541.213 134.924C552.012 134.924 558.687 127.267 558.687 115.88C558.687 104.296 551.815 96.8355 541.213 96.8355C530.611 96.8355 523.739 104.296 523.739 115.88ZM601.112 163V68.7597H625.065L627.813 79.5581C634.489 71.3121 641.557 67.7781 650.588 67.7781C653.729 67.7781 656.871 68.1707 660.012 68.7597V96.6391H649.41C637.63 96.6391 632.525 102.333 632.525 115.487V163H601.112ZM670.154 163V25.5663H732.981C775.782 25.5663 801.698 51.875 801.698 94.2831C801.698 136.691 775.782 163 732.981 163H670.154ZM707.457 130.409H731.017C753.792 130.409 763.413 115.88 763.413 94.2831C763.413 72.6864 753.792 58.1577 731.017 58.1577H707.457V130.409ZM813.57 163V25.5663H856.567L910.755 110.579H911.148V25.5663H945.31V163H902.313L848.124 77.9874H847.732V163H813.57ZM953.551 163L1000.08 25.5663H1053.68L1101.59 163H1060.36L1053.29 140.814H998.119L991.051 163H953.551ZM1008.13 109.008H1043.08L1025.8 54.4274H1025.41L1008.13 109.008Z" fill="#7424B3"/>
<path d="M75.8421 164.963C33.0413 164.963 3.98393 136.691 3.98393 94.2831C3.98393 51.875 33.0413 23.603 75.8421 23.603C110.986 23.603 136.706 43.2363 142.399 76.4168L107.059 82.8958C103.329 67.1891 91.9415 58.943 75.8421 58.943C55.0307 58.943 42.269 72.6864 42.269 94.2831C42.269 115.88 55.0307 129.623 75.8421 129.623C93.5122 129.623 105.292 119.807 108.041 101.744L143.577 107.045C139.454 143.17 112.949 164.963 75.8421 164.963ZM153.8 163V68.7597H177.753L180.502 79.5581C187.177 71.3121 194.245 67.7781 203.277 67.7781C206.418 67.7781 209.559 68.1707 212.701 68.7597V96.6391H202.099C190.319 96.6391 185.214 102.333 185.214 115.487V163H153.8ZM262.968 164.963C233.911 164.963 215.063 145.723 215.063 115.88C215.063 86.0371 234.5 66.7964 263.165 66.7964C289.473 66.7964 313.033 83.4848 309.107 122.948H246.28C248.44 131.587 254.526 136.495 263.95 136.495C271.214 136.495 277.301 133.354 280.638 127.856L307.732 135.906C301.45 153.772 285.154 164.963 262.968 164.963ZM246.476 105.278H279.264C277.497 97.4245 271.803 92.9088 263.361 92.9088C254.722 92.9088 248.832 97.4245 246.476 105.278ZM361.646 164.374C335.534 164.374 316.489 145.134 316.489 115.88C316.489 86.6261 335.534 67.3854 361.646 67.3854C373.622 67.3854 382.065 71.3121 387.955 76.0241L389.918 68.7597H414.067V163H389.918L387.955 155.736C382.065 160.448 373.622 164.374 361.646 164.374ZM348.492 115.88C348.492 127.66 355.363 135.513 366.554 135.513C377.745 135.513 385.01 127.66 385.01 115.88C385.01 104.1 377.745 96.2465 366.554 96.2465C355.363 96.2465 348.492 104.1 348.492 115.88ZM467.043 164.963C444.269 164.963 434.452 152.005 434.452 131.194V96.6391H423.457V68.7597H426.991C435.63 68.7597 438.771 65.6184 438.771 56.3907V41.273H465.865V68.7597H486.284V96.6391H465.865V125.5C465.865 133.55 469.792 136.495 476.86 136.495C479.413 136.495 482.75 136.102 486.873 135.317V161.822C480.394 163.785 473.915 164.963 467.043 164.963ZM541.213 164.963C510.978 164.963 491.541 145.723 491.541 115.88C491.541 86.0371 510.978 66.7964 541.213 66.7964C571.449 66.7964 590.886 86.0371 590.886 115.88C590.886 145.723 571.449 164.963 541.213 164.963ZM523.739 115.88C523.739 127.267 530.415 134.924 541.213 134.924C552.012 134.924 558.687 127.267 558.687 115.88C558.687 104.296 551.815 96.8355 541.213 96.8355C530.611 96.8355 523.739 104.296 523.739 115.88ZM601.112 163V68.7597H625.065L627.813 79.5581C634.489 71.3121 641.557 67.7781 650.588 67.7781C653.729 67.7781 656.871 68.1707 660.012 68.7597V96.6391H649.41C637.63 96.6391 632.525 102.333 632.525 115.487V163H601.112ZM670.154 163V25.5663H732.981C775.782 25.5663 801.698 51.875 801.698 94.2831C801.698 136.691 775.782 163 732.981 163H670.154ZM707.457 130.409H731.017C753.792 130.409 763.413 115.88 763.413 94.2831C763.413 72.6864 753.792 58.1577 731.017 58.1577H707.457V130.409ZM813.57 163V25.5663H856.567L910.755 110.579H911.148V25.5663H945.31V163H902.313L848.124 77.9874H847.732V163H813.57ZM953.551 163L1000.08 25.5663H1053.68L1101.59 163H1060.36L1053.29 140.814H998.119L991.051 163H953.551ZM1008.13 109.008H1043.08L1025.8 54.4274H1025.41L1008.13 109.008Z" fill="url(#paint0_linear_2054_230)"/>
</g>
<defs>
<linearGradient id="paint0_linear_2054_230" x1="-844.001" y1="47.122" x2="-265.648" y2="923.389" gradientUnits="userSpaceOnUse">
<stop stop-color="#E40DA8"/>
<stop offset="1" stop-color="#E40DA8" stop-opacity="0"/>
</linearGradient>
<clipPath id="clip0_2054_230">
<rect width="1102" height="196" fill="white"/>
</clipPath>
</defs>
</svg>
