<svg width="360" height="54" viewBox="0 0 360 54" fill="none" xmlns="http://www.w3.org/2000/svg">
<path d="M35.9289 3.97253L25.5112 34.5341C25.4074 34.8387 25.2398 35.1175 25.0197 35.352C24.7996 35.5864 24.532 35.7711 24.2348 35.8937C23.9377 36.0162 23.6178 36.0739 23.2966 36.0627C22.9754 36.0515 22.6603 35.9717 22.3724 35.8288L1.73915 25.5848C1.24519 25.3395 0.824708 24.968 0.520276 24.5077C0.215845 24.0475 0.0382688 23.5149 0.00552437 22.9638C-0.0272201 22.4128 0.0860295 21.8628 0.333809 21.3697C0.581588 20.8765 0.955101 20.4577 1.41654 20.1555L31.4491 0.489728C31.9717 0.147478 32.5881 -0.0228669 33.2121 0.00246629C33.8361 0.0277995 34.4367 0.247546 34.9299 0.631042C35.4232 1.01454 35.7846 1.54265 35.9637 2.14167C36.1428 2.7407 36.1306 3.38076 35.9289 3.97253Z" fill="#7424B3"/>
<path d="M35.9289 3.97253L25.5112 34.5341C25.4074 34.8387 25.2398 35.1175 25.0197 35.352C24.7996 35.5864 24.532 35.7711 24.2348 35.8937C23.9377 36.0162 23.6178 36.0739 23.2966 36.0627C22.9754 36.0515 22.6603 35.9717 22.3724 35.8288L1.73915 25.5848C1.24519 25.3395 0.824708 24.968 0.520276 24.5077C0.215845 24.0475 0.0382688 23.5149 0.00552437 22.9638C-0.0272201 22.4128 0.0860295 21.8628 0.333809 21.3697C0.581588 20.8765 0.955101 20.4577 1.41654 20.1555L31.4491 0.489728C31.9717 0.147478 32.5881 -0.0228669 33.2121 0.00246629C33.8361 0.0277995 34.4367 0.247546 34.9299 0.631042C35.4232 1.01454 35.7846 1.54265 35.9637 2.14167C36.1428 2.7407 36.1306 3.38076 35.9289 3.97253Z" fill="url(#paint0_linear_2041_844)"/>
<path d="M26.9935 49.5078L37.4116 18.945C37.5154 18.6407 37.6829 18.362 37.9029 18.1276C38.1229 17.8933 38.3903 17.7087 38.6873 17.5862C38.9844 17.4637 39.3041 17.4061 39.6251 17.4173C39.9461 17.4284 40.2611 17.5081 40.5489 17.651L61.1833 27.8956C61.6772 28.1408 62.0977 28.5124 62.4021 28.9726C62.7066 29.4329 62.8841 29.9655 62.9169 30.5166C62.9496 31.0676 62.8364 31.6175 62.5886 32.1107C62.3408 32.6038 61.9673 33.0227 61.5059 33.3248L31.4733 52.9906C30.9507 53.3329 30.3343 53.5032 29.7103 53.4779C29.0863 53.4525 28.4857 53.2328 27.9925 52.8493C27.4992 52.4658 27.1378 51.9377 26.9587 51.3387C26.7796 50.7396 26.7918 50.0996 26.9935 49.5078V49.5078Z" fill="#7424B3"/>
<path d="M26.9935 49.5078L37.4116 18.945C37.5154 18.6407 37.6829 18.362 37.9029 18.1276C38.1229 17.8933 38.3903 17.7087 38.6873 17.5862C38.9844 17.4637 39.3041 17.4061 39.6251 17.4173C39.9461 17.4284 40.2611 17.5081 40.5489 17.651L61.1833 27.8956C61.6772 28.1408 62.0977 28.5124 62.4021 28.9726C62.7066 29.4329 62.8841 29.9655 62.9169 30.5166C62.9496 31.0676 62.8364 31.6175 62.5886 32.1107C62.3408 32.6038 61.9673 33.0227 61.5059 33.3248L31.4733 52.9906C30.9507 53.3329 30.3343 53.5032 29.7103 53.4779C29.0863 53.4525 28.4857 53.2328 27.9925 52.8493C27.4992 52.4658 27.1378 51.9377 26.9587 51.3387C26.7796 50.7396 26.7918 50.0996 26.9935 49.5078V49.5078Z" fill="url(#paint1_linear_2041_844)"/>
<g clip-path="url(#clip0_2041_844)">
<path d="M94.9624 44.2401C88.1124 44.2401 82.8624 42.0901 78.8624 37.5401L84.8124 32.2901C87.7124 34.9401 91.1624 36.2901 95.1124 36.2901C98.6124 36.2901 100.812 35.3401 100.812 33.3901C100.812 31.9901 99.6624 31.2401 96.8624 30.6901L90.7624 29.5401C83.8624 28.2401 80.3124 24.9901 80.3124 19.4401C80.3124 12.6401 85.6124 8.24011 94.3624 8.24011C100.762 8.24011 105.712 10.4901 109.062 14.8901L103.212 19.3901C101.062 16.9901 98.0124 15.7401 94.3624 15.7401C91.2124 15.7401 89.6124 16.6401 89.6124 18.1901C89.6124 19.4401 90.6624 20.1901 92.9624 20.6401L99.9624 21.9401C107.012 23.2401 110.362 26.4401 110.362 32.2901C110.362 39.7901 104.612 44.2401 94.9624 44.2401ZM122.774 44.2401C116.974 44.2401 114.474 40.9401 114.474 35.6401V26.8401H111.674V19.7401H112.574C114.774 19.7401 115.574 18.9401 115.574 16.5901V12.7401H122.474V19.7401H127.674V26.8401H122.474V34.1901C122.474 36.2401 123.474 36.9901 125.274 36.9901C125.924 36.9901 126.774 36.8901 127.824 36.6901V43.4401C126.174 43.9401 124.524 44.2401 122.774 44.2401ZM141.662 44.2401C133.962 44.2401 129.012 39.3401 129.012 31.7401C129.012 24.1401 133.962 19.2401 141.662 19.2401C149.362 19.2401 154.312 24.1401 154.312 31.7401C154.312 39.3401 149.362 44.2401 141.662 44.2401ZM137.212 31.7401C137.212 34.6401 138.912 36.5901 141.662 36.5901C144.412 36.5901 146.112 34.6401 146.112 31.7401C146.112 28.7901 144.362 26.8901 141.662 26.8901C138.962 26.8901 137.212 28.7901 137.212 31.7401ZM156.917 43.7401V19.7401H163.017L163.717 22.4901C165.417 20.3901 167.217 19.4901 169.517 19.4901C170.317 19.4901 171.117 19.5901 171.917 19.7401V26.8401H169.217C166.217 26.8401 164.917 28.2901 164.917 31.6401V43.7401H156.917ZM179.84 52.7401C178.39 52.7401 176.89 52.5401 175.29 52.1401V45.7901C176.34 45.9901 177.14 46.0401 177.69 46.0401C179.54 46.0401 180.49 45.3901 180.49 44.1401C180.49 43.6401 180.34 43.0901 180.09 42.2901L172.49 19.7401H180.99L185.64 34.9401H185.74L189.84 19.7401H197.89L190.24 43.7401C188.04 50.5901 184.54 52.7401 179.84 52.7401ZM209.873 44.2401C202.273 44.2401 197.323 39.3401 197.323 31.7401C197.323 24.1401 202.273 19.2401 209.873 19.2401C216.373 19.2401 220.323 22.9401 221.473 28.4401L214.373 30.5401C213.823 28.2901 212.273 26.8901 209.973 26.8901C207.273 26.8901 205.473 28.7901 205.473 31.7401C205.473 34.6401 207.223 36.5901 209.973 36.5901C212.273 36.5901 213.973 35.2401 214.623 33.0901L221.823 34.7401C220.673 40.4401 216.523 44.2401 209.873 44.2401ZM224.202 43.7401V8.74011H232.202V43.7401H224.202ZM246.323 44.0901C239.673 44.0901 234.823 39.1901 234.823 31.7401C234.823 24.2901 239.673 19.3901 246.323 19.3901C249.373 19.3901 251.523 20.3901 253.023 21.5901L253.523 19.7401H259.673V43.7401H253.523L253.023 41.8901C251.523 43.0901 249.373 44.0901 246.323 44.0901ZM242.973 31.7401C242.973 34.7401 244.723 36.7401 247.573 36.7401C250.423 36.7401 252.273 34.7401 252.273 31.7401C252.273 28.7401 250.423 26.7401 247.573 26.7401C244.723 26.7401 242.973 28.7401 242.973 31.7401ZM271.914 44.2401C267.064 44.2401 263.264 42.5401 261.364 38.3901L267.264 35.5901C268.264 37.1401 269.764 37.9901 271.664 37.9901C273.014 37.9901 274.314 37.5401 274.314 36.5401C274.314 35.7401 273.514 35.3901 272.414 35.0901L268.664 34.0901C264.514 32.9901 262.314 30.6401 262.314 26.9401C262.314 22.1401 266.114 19.2401 271.664 19.2401C275.864 19.2401 279.614 20.8901 281.514 24.8401L276.214 27.4401C275.214 25.9401 273.664 25.0901 271.914 25.0901C270.614 25.0901 269.914 25.5401 269.914 26.3401C269.914 27.1401 270.614 27.5401 271.914 27.8401L275.514 28.6901C280.014 29.7401 282.314 31.9901 282.314 36.0901C282.314 41.2901 278.264 44.2401 271.914 44.2401ZM284.7 43.7401V8.74011H292.7V21.6901C294.25 20.0901 296.1 19.2401 298.9 19.2401C303.45 19.2401 306.95 21.5401 306.95 28.6901V43.7401H298.95V30.6401C298.95 28.0901 297.9 26.8901 295.95 26.8901C293.7 26.8901 292.7 28.4901 292.7 30.8401V43.7401H284.7Z" fill="#233C42"/>
<path d="M311.383 43.7401V35.8401H319.383V43.7401H311.383ZM333.099 44.0901C326.449 44.0901 321.599 39.1901 321.599 31.7401C321.599 24.2901 326.449 19.3901 333.099 19.3901C336.149 19.3901 338.299 20.3901 339.799 21.5901L340.299 19.7401H346.449V43.7401H340.299L339.799 41.8901C338.299 43.0901 336.149 44.0901 333.099 44.0901ZM329.749 31.7401C329.749 34.7401 331.499 36.7401 334.349 36.7401C337.199 36.7401 339.049 34.7401 339.049 31.7401C339.049 28.7401 337.199 26.7401 334.349 26.7401C331.499 26.7401 329.749 28.7401 329.749 31.7401ZM350.041 43.7401V19.7401H358.041V43.7401H350.041ZM350.041 17.0401V8.74011H358.041V17.0401H350.041Z" fill="#7424B3"/>
<path d="M311.383 43.7401V35.8401H319.383V43.7401H311.383ZM333.099 44.0901C326.449 44.0901 321.599 39.1901 321.599 31.7401C321.599 24.2901 326.449 19.3901 333.099 19.3901C336.149 19.3901 338.299 20.3901 339.799 21.5901L340.299 19.7401H346.449V43.7401H340.299L339.799 41.8901C338.299 43.0901 336.149 44.0901 333.099 44.0901ZM329.749 31.7401C329.749 34.7401 331.499 36.7401 334.349 36.7401C337.199 36.7401 339.049 34.7401 339.049 31.7401C339.049 28.7401 337.199 26.7401 334.349 26.7401C331.499 26.7401 329.749 28.7401 329.749 31.7401ZM350.041 43.7401V19.7401H358.041V43.7401H350.041ZM350.041 17.0401V8.74011H358.041V17.0401H350.041Z" fill="url(#paint2_linear_2041_844)"/>
</g>
<defs>
<linearGradient id="paint0_linear_2041_844" x1="1.12474" y1="36.064" x2="49.534" y2="40.4706" gradientUnits="userSpaceOnUse">
<stop stop-color="#E40DA8"/>
<stop offset="1" stop-color="#E40DA8" stop-opacity="0"/>
</linearGradient>
<linearGradient id="paint1_linear_2041_844" x1="-0.807628" y1="26.0864" x2="57.3808" y2="41.7777" gradientUnits="userSpaceOnUse">
<stop stop-color="#E40DA8"/>
<stop offset="1" stop-color="#E40DA8" stop-opacity="0"/>
</linearGradient>
<linearGradient id="paint2_linear_2041_844" x1="269.862" y1="13.761" x2="351.875" y2="36.3033" gradientUnits="userSpaceOnUse">
<stop stop-color="#E40DA8"/>
<stop offset="1" stop-color="#E40DA8" stop-opacity="0"/>
</linearGradient>
<clipPath id="clip0_2041_844">
<rect width="282" height="50" fill="white" transform="translate(77.9224 1.74011)"/>
</clipPath>
</defs>
</svg>
