<svg width="1411" height="210" viewBox="0 0 1411 210" fill="none" xmlns="http://www.w3.org/2000/svg">
<path d="M141.081 15.5989L100.174 135.604C99.7665 136.8 99.1086 137.895 98.2443 138.816C97.3799 139.736 96.3292 140.462 95.1624 140.943C93.9956 141.424 92.7395 141.65 91.4783 141.606C90.2171 141.562 88.9798 141.249 87.8493 140.688L6.82908 100.463C4.88945 99.5002 3.23836 98.0412 2.04296 96.2339C0.847553 94.4267 0.150269 92.3353 0.0216924 90.1715C-0.106884 88.0076 0.33781 85.8482 1.31076 83.9118C2.28371 81.9754 3.75037 80.3307 5.56228 79.1442L123.49 1.92301C125.543 0.579097 127.963 -0.0897911 130.413 0.00968433C132.864 0.10916 135.222 0.972035 137.159 2.4779C139.096 3.98376 140.515 6.05748 141.218 8.40967C141.921 10.7619 141.873 13.2752 141.081 15.5989Z" fill="#7424B3"/>
<path d="M141.081 15.5989L100.174 135.604C99.7665 136.8 99.1086 137.895 98.2443 138.816C97.3799 139.736 96.3292 140.462 95.1624 140.943C93.9956 141.424 92.7395 141.65 91.4783 141.606C90.2171 141.562 88.9798 141.249 87.8493 140.688L6.82908 100.463C4.88945 99.5002 3.23836 98.0412 2.04296 96.2339C0.847553 94.4267 0.150269 92.3353 0.0216924 90.1715C-0.106884 88.0076 0.33781 85.8482 1.31076 83.9118C2.28371 81.9754 3.75037 80.3307 5.56228 79.1442L123.49 1.92301C125.543 0.579097 127.963 -0.0897911 130.413 0.00968433C132.864 0.10916 135.222 0.972035 137.159 2.4779C139.096 3.98376 140.515 6.05748 141.218 8.40967C141.921 10.7619 141.873 13.2752 141.081 15.5989Z" fill="url(#paint0_linear_2054_234)"/>
<path d="M105.994 194.401L146.903 74.3911C147.31 73.1959 147.968 72.1015 148.832 71.1813C149.696 70.2611 150.746 69.5363 151.912 69.0552C153.078 68.5742 154.334 68.348 155.594 68.392C156.855 68.4359 158.092 68.7488 159.222 69.3099L240.246 109.537C242.186 110.5 243.837 111.959 245.032 113.766C246.228 115.573 246.925 117.665 247.054 119.829C247.182 121.992 246.738 124.152 245.765 126.088C244.792 128.025 243.325 129.669 241.513 130.856L123.585 208.077C121.533 209.421 119.112 210.09 116.662 209.99C114.212 209.891 111.854 209.028 109.917 207.522C107.98 206.016 106.561 203.943 105.858 201.59C105.154 199.238 105.202 196.725 105.994 194.401V194.401Z" fill="#7424B3"/>
<path d="M105.994 194.401L146.903 74.3911C147.31 73.1959 147.968 72.1015 148.832 71.1813C149.696 70.2611 150.746 69.5363 151.912 69.0552C153.078 68.5742 154.334 68.348 155.594 68.392C156.855 68.4359 158.092 68.7488 159.222 69.3099L240.246 109.537C242.186 110.5 243.837 111.959 245.032 113.766C246.228 115.573 246.925 117.665 247.054 119.829C247.182 121.992 246.738 124.152 245.765 126.088C244.792 128.025 243.325 129.669 241.513 130.856L123.585 208.077C121.533 209.421 119.112 210.09 116.662 209.99C114.212 209.891 111.854 209.028 109.917 207.522C107.98 206.016 106.561 203.943 105.858 201.59C105.154 199.238 105.202 196.725 105.994 194.401V194.401Z" fill="url(#paint1_linear_2054_234)"/>
<g clip-path="url(#clip0_2054_234)">
<path d="M371.855 171.963C344.957 171.963 324.342 163.521 308.636 145.655L331.999 125.04C343.387 135.445 356.934 140.746 372.444 140.746C386.187 140.746 394.826 137.016 394.826 129.359C394.826 123.862 390.31 120.917 379.316 118.757L355.363 114.241C328.269 109.137 314.329 96.3748 314.329 74.5817C314.329 47.8803 335.141 30.603 369.499 30.603C394.63 30.603 414.067 39.438 427.221 56.7154L404.25 74.3854C395.808 64.9614 383.831 60.053 369.499 60.053C357.13 60.053 350.847 63.587 350.847 69.6734C350.847 74.5817 354.97 77.5267 364.002 79.2938L391.488 84.3984C419.172 89.5031 432.326 102.068 432.326 125.04C432.326 154.49 409.748 171.963 371.855 171.963ZM481.061 171.963C458.286 171.963 448.47 159.005 448.47 138.194V103.639H437.475V75.7597H441.009C449.648 75.7597 452.789 72.6184 452.789 63.3907V48.273H479.883V75.7597H500.302V103.639H479.883V132.5C479.883 140.55 483.81 143.495 490.878 143.495C493.43 143.495 496.768 143.102 500.891 142.317V168.822C494.412 170.785 487.933 171.963 481.061 171.963ZM555.231 171.963C524.996 171.963 505.558 152.723 505.558 122.88C505.558 93.0371 524.996 73.7964 555.231 73.7964C585.466 73.7964 604.903 93.0371 604.903 122.88C604.903 152.723 585.466 171.963 555.231 171.963ZM537.757 122.88C537.757 134.267 544.433 141.924 555.231 141.924C566.029 141.924 572.705 134.267 572.705 122.88C572.705 111.296 565.833 103.835 555.231 103.835C544.629 103.835 537.757 111.296 537.757 122.88ZM615.13 170V75.7597H639.082L641.831 86.5581C648.506 78.3121 655.574 74.7781 664.606 74.7781C667.747 74.7781 670.888 75.1707 674.03 75.7597V103.639H663.428C651.648 103.639 646.543 109.333 646.543 122.487V170H615.13ZM705.143 205.34C699.449 205.34 693.559 204.555 687.276 202.984V178.05C691.399 178.835 694.541 179.031 696.7 179.031C703.965 179.031 707.695 176.479 707.695 171.571C707.695 169.607 707.106 167.448 706.124 164.306L676.282 75.7597H709.658L727.917 135.445H728.31L744.409 75.7597H776.019L745.98 170C737.341 196.898 723.598 205.34 705.143 205.34ZM823.072 171.963C793.229 171.963 773.792 152.723 773.792 122.88C773.792 93.0371 793.229 73.7964 823.072 73.7964C848.595 73.7964 864.105 88.3251 868.621 109.922L840.742 118.168C838.582 109.333 832.496 103.835 823.464 103.835C812.862 103.835 805.794 111.296 805.794 122.88C805.794 134.267 812.666 141.924 823.464 141.924C832.496 141.924 839.171 136.623 841.723 128.181L869.996 134.66C865.48 157.042 849.184 171.963 823.072 171.963ZM879.337 170V32.5663H910.75V170H879.337ZM966.199 171.374C940.087 171.374 921.042 152.134 921.042 122.88C921.042 93.6261 940.087 74.3854 966.199 74.3854C978.175 74.3854 986.618 78.3121 992.508 83.0241L994.471 75.7597H1018.62V170H994.471L992.508 162.736C986.618 167.448 978.175 171.374 966.199 171.374ZM953.045 122.88C953.045 134.66 959.916 142.513 971.107 142.513C982.299 142.513 989.563 134.66 989.563 122.88C989.563 111.1 982.299 103.246 971.107 103.246C959.916 103.246 953.045 111.1 953.045 122.88ZM1066.69 171.963C1047.64 171.963 1032.72 165.288 1025.26 148.992L1048.43 137.998C1052.36 144.084 1058.25 147.422 1065.71 147.422C1071.01 147.422 1076.11 145.655 1076.11 141.728C1076.11 138.587 1072.97 137.212 1068.65 136.034L1053.93 132.108C1037.63 127.788 1028.99 118.561 1028.99 104.032C1028.99 85.1838 1043.91 73.7964 1065.71 73.7964C1082.2 73.7964 1096.92 80.2754 1104.38 95.7858L1083.57 105.995C1079.65 100.105 1073.56 96.7675 1066.69 96.7675C1061.58 96.7675 1058.83 98.5345 1058.83 101.676C1058.83 104.817 1061.58 106.388 1066.69 107.566L1080.82 110.904C1098.49 115.027 1107.53 123.862 1107.53 139.961C1107.53 160.38 1091.62 171.963 1066.69 171.963ZM1116.89 170V32.5663H1148.31V83.4168C1154.39 77.1341 1161.66 73.7964 1172.65 73.7964C1190.52 73.7964 1204.26 82.8278 1204.26 110.904V170H1172.85V118.561C1172.85 108.547 1168.73 103.835 1161.07 103.835C1152.23 103.835 1148.31 110.118 1148.31 119.346V170H1116.89Z" fill="#233C42"/>
<path d="M1220.51 170V138.979H1251.92V170H1220.51ZM1305.78 171.374C1279.67 171.374 1260.62 152.134 1260.62 122.88C1260.62 93.6261 1279.67 74.3854 1305.78 74.3854C1317.76 74.3854 1326.2 78.3121 1332.09 83.0241L1334.05 75.7597H1358.2V170H1334.05L1332.09 162.736C1326.2 167.448 1317.76 171.374 1305.78 171.374ZM1292.63 122.88C1292.63 134.66 1299.5 142.513 1310.69 142.513C1321.88 142.513 1329.14 134.66 1329.14 122.88C1329.14 111.1 1321.88 103.246 1310.69 103.246C1299.5 103.246 1292.63 111.1 1292.63 122.88ZM1372.3 170V75.7597H1403.72V170H1372.3ZM1372.3 65.1577V32.5663H1403.72V65.1577H1372.3Z" fill="#233C42"/>
</g>
<defs>
<linearGradient id="paint0_linear_2054_234" x1="4.41651" y1="141.612" x2="194.504" y2="158.915" gradientUnits="userSpaceOnUse">
<stop stop-color="#E40DA8"/>
<stop offset="1" stop-color="#E40DA8" stop-opacity="0"/>
</linearGradient>
<linearGradient id="paint1_linear_2054_234" x1="-3.17186" y1="102.433" x2="225.315" y2="164.048" gradientUnits="userSpaceOnUse">
<stop stop-color="#E40DA8"/>
<stop offset="1" stop-color="#E40DA8" stop-opacity="0"/>
</linearGradient>
<clipPath id="clip0_2054_234">
<rect width="1105" height="196" fill="white" transform="translate(305.976 7)"/>
</clipPath>
</defs>
</svg>
