<?xml version="1.0" encoding="UTF-8"?>
<svg id="Ebene_1" data-name="Ebene 1" xmlns="http://www.w3.org/2000/svg" xmlns:xlink="http://www.w3.org/1999/xlink" viewBox="0 0 62.92 53.48">
  <defs>
    <style>
      .cls-1 {
        fill: url(#Unbenannter_Verlauf_2);
      }

      .cls-2 {
        fill: #623b8f;
      }

      .cls-3 {
        fill: url(#Unbenannter_Verlauf_2-2);
      }
    </style>
    <linearGradient id="Unbenannter_Verlauf_2" data-name="Unbenannter Verlauf 2" x1="2.98" y1="285.08" x2="51.38" y2="280.68" gradientTransform="translate(0 300.81) scale(1 -1)" gradientUnits="userSpaceOnUse">
      <stop offset="0" stop-color="#c43d8f"/>
      <stop offset="1" stop-color="#c43d8f" stop-opacity="0"/>
    </linearGradient>
    <linearGradient id="Unbenannter_Verlauf_2-2" data-name="Unbenannter Verlauf 2" x1="-.76" y1="274.91" x2="57.43" y2="259.22" xlink:href="#Unbenannter_Verlauf_2"/>
  </defs>
  <path class="cls-2" d="M35.93,3.97l-10.42,30.56c-.1.3-.27.58-.49.82-.22.23-.49.42-.78.54-.3.12-.62.18-.94.17s-.64-.09-.92-.23L1.74,25.58c-.49-.25-.91-.62-1.22-1.08-.3-.46-.48-.99-.51-1.54-.03-.55.08-1.1.33-1.59.25-.49.62-.91,1.08-1.21L31.45.49c.52-.34,1.14-.51,1.76-.49.62.03,1.22.25,1.72.63.49.38.85.91,1.03,1.51.18.6.17,1.24-.03,1.83Z"/>
  <path class="cls-1" d="M35.93,3.97l-10.42,30.56c-.1.3-.27.58-.49.82-.22.23-.49.42-.78.54-.3.12-.62.18-.94.17s-.64-.09-.92-.23L1.74,25.58c-.49-.25-.91-.62-1.22-1.08-.3-.46-.48-.99-.51-1.54-.03-.55.08-1.1.33-1.59.25-.49.62-.91,1.08-1.21L31.45.49c.52-.34,1.14-.51,1.76-.49.62.03,1.22.25,1.72.63.49.38.85.91,1.03,1.51.18.6.17,1.24-.03,1.83Z"/>
  <path class="cls-2" d="M26.99,49.51l10.42-30.56c.1-.3.27-.58.49-.82.22-.23.49-.42.78-.54.3-.12.62-.18.94-.17.32.01.64.09.92.23l20.63,10.24c.49.25.91.62,1.22,1.08.3.46.48.99.51,1.54.03.55-.08,1.1-.33,1.59-.25.49-.62.91-1.08,1.21l-30.03,19.67c-.52.34-1.14.51-1.76.49-.62-.03-1.22-.25-1.72-.63-.49-.38-.85-.91-1.03-1.51-.18-.6-.17-1.24.03-1.83h0Z"/>
  <path class="cls-3" d="M26.99,49.51l10.42-30.56c.1-.3.27-.58.49-.82.22-.23.49-.42.78-.54.3-.12.62-.18.94-.17.32.01.64.09.92.23l20.63,10.24c.49.25.91.62,1.22,1.08.3.46.48.99.51,1.54.03.55-.08,1.1-.33,1.59-.25.49-.62.91-1.08,1.21l-30.03,19.67c-.52.34-1.14.51-1.76.49-.62-.03-1.22-.25-1.72-.63-.49-.38-.85-.91-1.03-1.51-.18-.6-.17-1.24.03-1.83h0Z"/>
</svg>