<svg width="188" height="26" viewBox="0 0 188 26" fill="none" xmlns="http://www.w3.org/2000/svg">
<g clip-path="url(#clip0_265_3387)">
<path d="M10.4049 22.2613C4.70905 22.2613 0.842109 18.4989 0.842109 12.8552C0.842109 7.21158 4.70905 3.44915 10.4049 3.44915C15.0818 3.44915 18.5046 6.06195 19.2623 10.4776L14.5593 11.3398C14.0629 9.24956 12.5474 8.15218 10.4049 8.15218C7.63538 8.15218 5.93706 9.98114 5.93706 12.8552C5.93706 15.7293 7.63538 17.5582 10.4049 17.5582C12.7565 17.5582 14.3241 16.2518 14.6899 13.8481L19.4191 14.5535C18.8704 19.3611 15.3431 22.2613 10.4049 22.2613ZM20.7796 22V9.45858H23.9672L24.333 10.8956C25.2213 9.79825 26.1619 9.32794 27.3638 9.32794C27.7819 9.32794 28.1999 9.3802 28.618 9.45858V13.1688H27.2071C25.6394 13.1688 24.96 13.9265 24.96 15.677V22H20.7796ZM35.3075 22.2613C31.4406 22.2613 28.9323 19.7007 28.9323 15.7293C28.9323 11.7578 31.519 9.1973 35.3337 9.1973C38.8348 9.1973 41.9702 11.4182 41.4476 16.6699H33.0867C33.3741 17.8195 34.184 18.4727 35.4382 18.4727C36.4049 18.4727 37.2149 18.0547 37.6591 17.3231L41.2647 18.3943C40.4286 20.772 38.26 22.2613 35.3075 22.2613ZM33.1128 14.3184H37.4762C37.241 13.2733 36.4833 12.6723 35.3598 12.6723C34.2102 12.6723 33.4263 13.2733 33.1128 14.3184ZM48.4395 22.1829C44.9645 22.1829 42.4301 19.6224 42.4301 15.7293C42.4301 11.8362 44.9645 9.27569 48.4395 9.27569C50.0333 9.27569 51.1568 9.79825 51.9406 10.4253L52.2019 9.45858H55.4156V22H52.2019L51.9406 21.0333C51.1568 21.6603 50.0333 22.1829 48.4395 22.1829ZM46.6889 15.7293C46.6889 17.297 47.6034 18.3421 49.0927 18.3421C50.582 18.3421 51.5487 17.297 51.5487 15.7293C51.5487 14.1616 50.582 13.1165 49.0927 13.1165C47.6034 13.1165 46.6889 14.1616 46.6889 15.7293ZM62.4657 22.2613C59.4349 22.2613 58.1285 20.5368 58.1285 17.7673V13.1688H56.6653V9.45858H57.1356C58.2852 9.45858 58.7033 9.04053 58.7033 7.81252V5.80067H62.3089V9.45858H65.0262V13.1688H62.3089V17.0096C62.3089 18.0808 62.8315 18.4727 63.7721 18.4727C64.1118 18.4727 64.5559 18.4205 65.1046 18.316V21.8432C64.2424 22.1045 63.3802 22.2613 62.4657 22.2613ZM72.3362 22.2613C68.3124 22.2613 65.7258 19.7007 65.7258 15.7293C65.7258 11.7578 68.3124 9.1973 72.3362 9.1973C76.3599 9.1973 78.9465 11.7578 78.9465 15.7293C78.9465 19.7007 76.3599 22.2613 72.3362 22.2613ZM70.0108 15.7293C70.0108 17.2447 70.8991 18.2637 72.3362 18.2637C73.7732 18.2637 74.6615 17.2447 74.6615 15.7293C74.6615 14.1877 73.7471 13.1949 72.3362 13.1949C70.9252 13.1949 70.0108 14.1877 70.0108 15.7293ZM80.3074 22V9.45858H83.495L83.8608 10.8956C84.7492 9.79825 85.6898 9.32794 86.8917 9.32794C87.3097 9.32794 87.7278 9.3802 88.1458 9.45858V13.1688H86.7349C85.1672 13.1688 84.4879 13.9265 84.4879 15.677V22H80.3074ZM94.471 22V3.71043H105.314C110.226 3.71043 112.212 6.40161 112.212 10.1118C112.212 13.8219 110.226 16.5131 105.314 16.5131H99.4353V22H94.471ZM99.4353 12.5417H104.583C106.438 12.5417 107.117 11.6272 107.117 10.0857C107.117 8.57023 106.438 7.68188 104.583 7.68188H99.4353V12.5417ZM118.948 22.2613C115.081 22.2613 112.572 19.7007 112.572 15.7293C112.572 11.7578 115.159 9.1973 118.974 9.1973C122.475 9.1973 125.61 11.4182 125.088 16.6699H116.727C117.014 17.8195 117.824 18.4727 119.078 18.4727C120.045 18.4727 120.855 18.0547 121.299 17.3231L124.905 18.3943C124.069 20.772 121.9 22.2613 118.948 22.2613ZM116.753 14.3184H121.116C120.881 13.2733 120.123 12.6723 119 12.6723C117.85 12.6723 117.066 13.2733 116.753 14.3184ZM126.593 22V9.45858H129.78L130.146 10.8956C131.034 9.79825 131.975 9.32794 133.177 9.32794C133.595 9.32794 134.013 9.3802 134.431 9.45858V13.1688H133.02C131.452 13.1688 130.773 13.9265 130.773 15.677V22H126.593ZM140.196 22.2613C137.662 22.2613 135.676 21.3729 134.683 19.2043L137.766 17.7411C138.289 18.5511 139.073 18.9953 140.066 18.9953C140.771 18.9953 141.451 18.7601 141.451 18.2376C141.451 17.8195 141.032 17.6366 140.458 17.4799L138.498 16.9573C136.329 16.3825 135.18 15.1545 135.18 13.221C135.18 10.7127 137.166 9.1973 140.066 9.1973C142.26 9.1973 144.22 10.0595 145.213 12.1236L142.443 13.4823C141.921 12.6984 141.111 12.2543 140.196 12.2543C139.517 12.2543 139.151 12.4894 139.151 12.9075C139.151 13.3255 139.517 13.5345 140.196 13.6913L142.078 14.1355C144.429 14.6842 145.631 15.8599 145.631 18.0024C145.631 20.7197 143.515 22.2613 140.196 22.2613ZM152.863 22.2613C148.84 22.2613 146.253 19.7007 146.253 15.7293C146.253 11.7578 148.84 9.1973 152.863 9.1973C156.887 9.1973 159.474 11.7578 159.474 15.7293C159.474 19.7007 156.887 22.2613 152.863 22.2613ZM150.538 15.7293C150.538 17.2447 151.426 18.2637 152.863 18.2637C154.3 18.2637 155.189 17.2447 155.189 15.7293C155.189 14.1877 154.274 13.1949 152.863 13.1949C151.452 13.1949 150.538 14.1877 150.538 15.7293ZM160.835 22V9.45858H164.179L164.519 10.7389C165.407 9.74599 166.557 9.1973 168.15 9.1973C170.528 9.1973 172.462 10.3992 172.462 14.1355V22H168.281V15.1545C168.281 13.8219 167.732 13.1949 166.713 13.1949C165.538 13.1949 165.015 14.031 165.015 15.259V22H160.835ZM179.768 22.1829C176.293 22.1829 173.759 19.6224 173.759 15.7293C173.759 11.8362 176.293 9.27569 179.768 9.27569C181.362 9.27569 182.485 9.79825 183.269 10.4253L183.531 9.45858H186.744V22H183.531L183.269 21.0333C182.485 21.6603 181.362 22.1829 179.768 22.1829ZM178.018 15.7293C178.018 17.297 178.932 18.3421 180.421 18.3421C181.911 18.3421 182.877 17.297 182.877 15.7293C182.877 14.1616 181.911 13.1165 180.421 13.1165C178.932 13.1165 178.018 14.1616 178.018 15.7293Z" fill="#7424B3"/>
<path d="M10.4049 22.2613C4.70905 22.2613 0.842109 18.4989 0.842109 12.8552C0.842109 7.21158 4.70905 3.44915 10.4049 3.44915C15.0818 3.44915 18.5046 6.06195 19.2623 10.4776L14.5593 11.3398C14.0629 9.24956 12.5474 8.15218 10.4049 8.15218C7.63538 8.15218 5.93706 9.98114 5.93706 12.8552C5.93706 15.7293 7.63538 17.5582 10.4049 17.5582C12.7565 17.5582 14.3241 16.2518 14.6899 13.8481L19.4191 14.5535C18.8704 19.3611 15.3431 22.2613 10.4049 22.2613ZM20.7796 22V9.45858H23.9672L24.333 10.8956C25.2213 9.79825 26.1619 9.32794 27.3638 9.32794C27.7819 9.32794 28.1999 9.3802 28.618 9.45858V13.1688H27.2071C25.6394 13.1688 24.96 13.9265 24.96 15.677V22H20.7796ZM35.3075 22.2613C31.4406 22.2613 28.9323 19.7007 28.9323 15.7293C28.9323 11.7578 31.519 9.1973 35.3337 9.1973C38.8348 9.1973 41.9702 11.4182 41.4476 16.6699H33.0867C33.3741 17.8195 34.184 18.4727 35.4382 18.4727C36.4049 18.4727 37.2149 18.0547 37.6591 17.3231L41.2647 18.3943C40.4286 20.772 38.26 22.2613 35.3075 22.2613ZM33.1128 14.3184H37.4762C37.241 13.2733 36.4833 12.6723 35.3598 12.6723C34.2102 12.6723 33.4263 13.2733 33.1128 14.3184ZM48.4395 22.1829C44.9645 22.1829 42.4301 19.6224 42.4301 15.7293C42.4301 11.8362 44.9645 9.27569 48.4395 9.27569C50.0333 9.27569 51.1568 9.79825 51.9406 10.4253L52.2019 9.45858H55.4156V22H52.2019L51.9406 21.0333C51.1568 21.6603 50.0333 22.1829 48.4395 22.1829ZM46.6889 15.7293C46.6889 17.297 47.6034 18.3421 49.0927 18.3421C50.582 18.3421 51.5487 17.297 51.5487 15.7293C51.5487 14.1616 50.582 13.1165 49.0927 13.1165C47.6034 13.1165 46.6889 14.1616 46.6889 15.7293ZM62.4657 22.2613C59.4349 22.2613 58.1285 20.5368 58.1285 17.7673V13.1688H56.6653V9.45858H57.1356C58.2852 9.45858 58.7033 9.04053 58.7033 7.81252V5.80067H62.3089V9.45858H65.0262V13.1688H62.3089V17.0096C62.3089 18.0808 62.8315 18.4727 63.7721 18.4727C64.1118 18.4727 64.5559 18.4205 65.1046 18.316V21.8432C64.2424 22.1045 63.3802 22.2613 62.4657 22.2613ZM72.3362 22.2613C68.3124 22.2613 65.7258 19.7007 65.7258 15.7293C65.7258 11.7578 68.3124 9.1973 72.3362 9.1973C76.3599 9.1973 78.9465 11.7578 78.9465 15.7293C78.9465 19.7007 76.3599 22.2613 72.3362 22.2613ZM70.0108 15.7293C70.0108 17.2447 70.8991 18.2637 72.3362 18.2637C73.7732 18.2637 74.6615 17.2447 74.6615 15.7293C74.6615 14.1877 73.7471 13.1949 72.3362 13.1949C70.9252 13.1949 70.0108 14.1877 70.0108 15.7293ZM80.3074 22V9.45858H83.495L83.8608 10.8956C84.7492 9.79825 85.6898 9.32794 86.8917 9.32794C87.3097 9.32794 87.7278 9.3802 88.1458 9.45858V13.1688H86.7349C85.1672 13.1688 84.4879 13.9265 84.4879 15.677V22H80.3074ZM94.471 22V3.71043H105.314C110.226 3.71043 112.212 6.40161 112.212 10.1118C112.212 13.8219 110.226 16.5131 105.314 16.5131H99.4353V22H94.471ZM99.4353 12.5417H104.583C106.438 12.5417 107.117 11.6272 107.117 10.0857C107.117 8.57023 106.438 7.68188 104.583 7.68188H99.4353V12.5417ZM118.948 22.2613C115.081 22.2613 112.572 19.7007 112.572 15.7293C112.572 11.7578 115.159 9.1973 118.974 9.1973C122.475 9.1973 125.61 11.4182 125.088 16.6699H116.727C117.014 17.8195 117.824 18.4727 119.078 18.4727C120.045 18.4727 120.855 18.0547 121.299 17.3231L124.905 18.3943C124.069 20.772 121.9 22.2613 118.948 22.2613ZM116.753 14.3184H121.116C120.881 13.2733 120.123 12.6723 119 12.6723C117.85 12.6723 117.066 13.2733 116.753 14.3184ZM126.593 22V9.45858H129.78L130.146 10.8956C131.034 9.79825 131.975 9.32794 133.177 9.32794C133.595 9.32794 134.013 9.3802 134.431 9.45858V13.1688H133.02C131.452 13.1688 130.773 13.9265 130.773 15.677V22H126.593ZM140.196 22.2613C137.662 22.2613 135.676 21.3729 134.683 19.2043L137.766 17.7411C138.289 18.5511 139.073 18.9953 140.066 18.9953C140.771 18.9953 141.451 18.7601 141.451 18.2376C141.451 17.8195 141.032 17.6366 140.458 17.4799L138.498 16.9573C136.329 16.3825 135.18 15.1545 135.18 13.221C135.18 10.7127 137.166 9.1973 140.066 9.1973C142.26 9.1973 144.22 10.0595 145.213 12.1236L142.443 13.4823C141.921 12.6984 141.111 12.2543 140.196 12.2543C139.517 12.2543 139.151 12.4894 139.151 12.9075C139.151 13.3255 139.517 13.5345 140.196 13.6913L142.078 14.1355C144.429 14.6842 145.631 15.8599 145.631 18.0024C145.631 20.7197 143.515 22.2613 140.196 22.2613ZM152.863 22.2613C148.84 22.2613 146.253 19.7007 146.253 15.7293C146.253 11.7578 148.84 9.1973 152.863 9.1973C156.887 9.1973 159.474 11.7578 159.474 15.7293C159.474 19.7007 156.887 22.2613 152.863 22.2613ZM150.538 15.7293C150.538 17.2447 151.426 18.2637 152.863 18.2637C154.3 18.2637 155.189 17.2447 155.189 15.7293C155.189 14.1877 154.274 13.1949 152.863 13.1949C151.452 13.1949 150.538 14.1877 150.538 15.7293ZM160.835 22V9.45858H164.179L164.519 10.7389C165.407 9.74599 166.557 9.1973 168.15 9.1973C170.528 9.1973 172.462 10.3992 172.462 14.1355V22H168.281V15.1545C168.281 13.8219 167.732 13.1949 166.713 13.1949C165.538 13.1949 165.015 14.031 165.015 15.259V22H160.835ZM179.768 22.1829C176.293 22.1829 173.759 19.6224 173.759 15.7293C173.759 11.8362 176.293 9.27569 179.768 9.27569C181.362 9.27569 182.485 9.79825 183.269 10.4253L183.531 9.45858H186.744V22H183.531L183.269 21.0333C182.485 21.6603 181.362 22.1829 179.768 22.1829ZM178.018 15.7293C178.018 17.297 178.932 18.3421 180.421 18.3421C181.911 18.3421 182.877 17.297 182.877 15.7293C182.877 14.1616 181.911 13.1165 180.421 13.1165C178.932 13.1165 178.018 14.1616 178.018 15.7293Z" fill="url(#paint0_linear_265_3387)"/>
</g>
<defs>
<linearGradient id="paint0_linear_265_3387" x1="-143.986" y1="6.25087" x2="-76.1973" y2="138.337" gradientUnits="userSpaceOnUse">
<stop stop-color="#E40DA8"/>
<stop offset="1" stop-color="#E40DA8" stop-opacity="0"/>
</linearGradient>
<clipPath id="clip0_265_3387">
<rect width="188" height="26" fill="white"/>
</clipPath>
</defs>
</svg>
